<svg id="Layer_1" data-name="Layer 1" xmlns="http://www.w3.org/2000/svg" xmlns:xlink="http://www.w3.org/1999/xlink" viewBox="0 0 2880 2160"><defs><style>.cls-1{fill:url(#linear-gradient);}.cls-2{fill:url(#linear-gradient-2);}.cls-3{fill:url(#linear-gradient-3);}.cls-4{fill:url(#linear-gradient-4);}.cls-5{fill:url(#linear-gradient-5);}.cls-6{fill:url(#linear-gradient-6);}.cls-7{fill:url(#linear-gradient-7);}.cls-8{fill:#121010;}</style><linearGradient id="linear-gradient" x1="620.71" y1="1080" x2="1016.97" y2="1080" gradientUnits="userSpaceOnUse"><stop offset="0.02" stop-color="#12e1f9"/><stop offset="0.23" stop-color="#503ed9"/><stop offset="0.43" stop-color="#ee67ca"/><stop offset="0.7" stop-color="#7c43d4"/><stop offset="0.89" stop-color="#f8b0be"/></linearGradient><linearGradient id="linear-gradient-2" x1="718.87" y1="1005.66" x2="778.14" y2="1005.66" gradientUnits="userSpaceOnUse"><stop offset="0.07" stop-color="#503ed9"/><stop offset="0.74" stop-color="#ee67ca" stop-opacity="0"/></linearGradient><linearGradient id="linear-gradient-3" x1="698.5" y1="1016.22" x2="659.59" y2="1016.22" gradientUnits="userSpaceOnUse"><stop offset="0.09" stop-color="#262262"/><stop offset="1" stop-color="#ee67ca" stop-opacity="0"/></linearGradient><linearGradient id="linear-gradient-4" x1="705.06" y1="1106.43" x2="705.06" y2="1290.66" gradientUnits="userSpaceOnUse"><stop offset="0.16" stop-color="#262262"/><stop offset="0.41" stop-color="#ee67ca" stop-opacity="0"/></linearGradient><linearGradient id="linear-gradient-5" x1="705.06" y1="1200.18" x2="705.06" y2="786.55" gradientUnits="userSpaceOnUse"><stop offset="0.18" stop-color="#503ed9"/><stop offset="0.38" stop-color="#ee67ca" stop-opacity="0"/></linearGradient><linearGradient id="linear-gradient-6" x1="772.46" y1="1149.2" x2="732.65" y2="1149.2" gradientUnits="userSpaceOnUse"><stop offset="0" stop-color="#503ed9"/><stop offset="0.75" stop-color="#ee67ca" stop-opacity="0"/></linearGradient><linearGradient id="linear-gradient-7" x1="8667.62" y1="-2935.3" x2="8627.82" y2="-2935.3" gradientTransform="translate(9457.69 -1786.1) rotate(180)" gradientUnits="userSpaceOnUse"><stop offset="0" stop-color="#503ed9"/><stop offset="0.71" stop-color="#ee67ca" stop-opacity="0"/></linearGradient></defs><path class="cls-1" d="M778.08,908.58a86.8,86.8,0,0,0-86.74,83.94,81.08,81.08,0,0,0-.08,160.8v98.1H795.07V1163h75.38a78.32,78.32,0,0,0,78.32-78.33v-25.49H767.46v76.2H718.87V1019.47H940.3A76.67,76.67,0,0,0,1017,942.8V908.58Zm-86.82,216.76a53.46,53.46,0,0,1,0-104.82Zm103.81-38.54H921.16a48.59,48.59,0,0,1-48.59,48.59h-77.5ZM767.46,1163v60.79H718.87V1163ZM933.71,991.85H718.9a55.65,55.65,0,0,1,55.64-55.64h214.8A55.64,55.64,0,0,1,933.71,991.85Z"/><polygon class="cls-2" points="778.14 991.85 771 1019.46 718.87 1019.46 718.9 991.85 778.14 991.85"/><path class="cls-3" d="M691.33,992.52l-.07,28a53.38,53.38,0,0,0-31.51,19.41c-3.51-7.34-8.34-17.44-12.76-26.74A80.76,80.76,0,0,1,691.33,992.52Z"/><path class="cls-4" d="M718.87,1163v38.54L691.26,1198v-44.66C700.42,1156.53,709.63,1159.91,718.87,1163Z"/><polygon class="cls-5" points="718.87 1024.59 718.87 1135.39 691.26 1125.33 691.26 1043.98 718.87 1024.59"/><rect class="cls-6" x="739.29" y="1135.39" width="28.17" height="27.62"/><rect class="cls-7" x="795.07" y="1135.39" width="28.17" height="27.62"/><path class="cls-8" d="M1135.14,932.42h167v41.15H1175.82v75.21h126.29v40.68H1176.29v144.27h-41.15Z"/><path class="cls-8" d="M1352.26,926.74h41.15v307h-41.15Z"/><path class="cls-8" d="M1647.66,1144.1H1481.15q5.44,30,24.72,43.87t42,13.83q35,0,58.66-29.09l30,22.71q-33.84,43.75-90.59,43.75-43.51,0-72.85-29.8t-29.32-74q0-41.38,29.68-71.78t72.49-30.39q42.09,0,72.14,30.87T1647.66,1144.1Zm-162.25-32.88h119.21Q1584.75,1071,1546,1071,1503.62,1071,1485.41,1111.22Z"/><path class="cls-8" d="M1680.77,1038.61h49.91l43.46,55.51,42.58-55.51h49.48l-68,88.07,82.14,107h-49l-57.58-74.59-58.15,74.59h-48.6l82.35-107.36Z"/><path class="cls-8" d="M2039.21,920.83l142.26,312.9h-43.13l-35-77.1H1975.51l-34.57,77.1h-42.81Zm-.11,94-48.2,107.47h96.92Z"/><path class="cls-8" d="M2218.61,932.42h40.68v301.31h-40.68Z"/></svg>