<svg id="Layer_1" data-name="Layer 1" xmlns="http://www.w3.org/2000/svg" xmlns:xlink="http://www.w3.org/1999/xlink" viewBox="234 288 800 800" width="32" height="32" preserveAspectRatio="xMidYMid meet"><defs><style>.cls-1{fill:url(#linear-gradient);}.cls-2{fill:url(#linear-gradient-2);}.cls-3{fill:url(#linear-gradient-3);}.cls-4{fill:url(#linear-gradient-4);}.cls-5{fill:url(#linear-gradient-5);}.cls-6{fill:url(#linear-gradient-6);}.cls-7{fill:url(#linear-gradient-7);}</style><linearGradient id="linear-gradient" x1="234.64" y1="633.55" x2="1032.47" y2="633.55" gradientUnits="userSpaceOnUse"><stop offset="0.02" stop-color="#12e1f9"/><stop offset="0.23" stop-color="#503ed9"/><stop offset="0.43" stop-color="#ee67ca"/><stop offset="0.7" stop-color="#7c43d4"/><stop offset="0.89" stop-color="#f8b0be"/></linearGradient><linearGradient id="linear-gradient-2" x1="432.27" y1="483.87" x2="551.61" y2="483.87" gradientUnits="userSpaceOnUse"><stop offset="0.07" stop-color="#503ed9"/><stop offset="0.74" stop-color="#ee67ca" stop-opacity="0"/></linearGradient><linearGradient id="linear-gradient-3" x1="391.25" y1="505.14" x2="312.91" y2="505.14" gradientUnits="userSpaceOnUse"><stop offset="0.09" stop-color="#262262"/><stop offset="1" stop-color="#ee67ca" stop-opacity="0"/></linearGradient><linearGradient id="linear-gradient-4" x1="404.47" y1="686.76" x2="404.47" y2="1057.7" gradientUnits="userSpaceOnUse"><stop offset="0.16" stop-color="#262262"/><stop offset="0.41" stop-color="#ee67ca" stop-opacity="0"/></linearGradient><linearGradient id="linear-gradient-5" x1="404.47" y1="875.53" x2="404.47" y2="42.71" gradientUnits="userSpaceOnUse"><stop offset="0.18" stop-color="#503ed9"/><stop offset="0.38" stop-color="#ee67ca" stop-opacity="0"/></linearGradient><linearGradient id="linear-gradient-6" x1="540.16" y1="772.89" x2="460.02" y2="772.89" gradientUnits="userSpaceOnUse"><stop offset="0" stop-color="#503ed9"/><stop offset="0.75" stop-color="#ee67ca" stop-opacity="0"/></linearGradient><linearGradient id="linear-gradient-7" x1="7269.17" y1="-3451.88" x2="7189.03" y2="-3451.88" gradientTransform="translate(7844.8 -2678.99) rotate(180)" gradientUnits="userSpaceOnUse"><stop offset="0" stop-color="#503ed9"/><stop offset="0.71" stop-color="#ee67ca" stop-opacity="0"/></linearGradient></defs><path class="cls-1" d="M551.49,288.41a174.76,174.76,0,0,0-174.65,169,163.26,163.26,0,0,0-.16,323.76V978.69h209v-178H737.45A157.7,157.7,0,0,0,895.15,643V591.65H530.09V745.08H432.26V511.68H878.09A154.38,154.38,0,0,0,1032.47,357.3V288.41ZM376.68,724.84a107.65,107.65,0,0,1,0-211.05Zm209-77.59H839.57a97.83,97.83,0,0,1-97.83,97.83h-156ZM530.09,800.7V923.09H432.26V800.7ZM864.82,456.08H432.34a112,112,0,0,1,112-112H976.85A112.05,112.05,0,0,1,864.82,456.08Z"/><polygon class="cls-2" points="551.61 456.07 537.23 511.67 432.27 511.67 432.33 456.07 551.61 456.07"/><path class="cls-3" d="M376.83,457.41l-.16,56.37a107.4,107.4,0,0,0-63.43,39.08c-7.07-14.79-16.79-35.12-25.7-53.85A162.71,162.71,0,0,1,376.83,457.41Z"/><path class="cls-4" d="M432.27,800.69v77.59l-55.6-7.19V781.17C395.12,787.64,413.67,794.44,432.27,800.69Z"/><polygon class="cls-5" points="432.27 522 432.27 745.07 376.67 724.83 376.67 561.02 432.27 522"/><rect class="cls-6" x="473.38" y="745.08" width="56.71" height="55.62"/><rect class="cls-7" x="585.69" y="745.08" width="56.71" height="55.62"/></svg>